<svg xmlns="http://www.w3.org/2000/svg" xmlns:xlink="http://www.w3.org/1999/xlink" width="500" zoomAndPan="magnify" viewBox="0 0 375 374.999991" height="500" preserveAspectRatio="xMidYMid meet" version="1.0"><defs><clipPath id="ca360660a3"><path d="M 62.523438 39 L 312.273438 39 L 312.273438 336 L 62.523438 336 Z M 62.523438 39 " clip-rule="nonzero"/></clipPath></defs><g clip-path="url(#ca360660a3)"><path fill="#ffffff" d="M 187.890625 39.300781 L 72.71875 39.300781 C 67.269531 39.300781 62.847656 43.726562 62.847656 49.175781 L 62.847656 325.660156 C 62.847656 331.109375 67.269531 335.535156 72.71875 335.535156 L 303.0625 335.535156 C 308.511719 335.535156 312.933594 331.109375 312.933594 325.660156 L 312.933594 187.417969 C 312.933594 181.96875 308.511719 177.542969 303.0625 177.542969 C 297.613281 177.542969 293.191406 181.96875 293.191406 187.417969 L 293.191406 315.785156 C 293.191406 315.785156 82.589844 315.785156 82.589844 315.785156 C 82.589844 315.785156 82.589844 59.050781 82.589844 59.050781 C 82.589844 59.050781 187.890625 59.050781 187.890625 59.050781 C 193.339844 59.050781 197.761719 54.628906 197.761719 49.175781 C 197.761719 43.726562 193.339844 39.300781 187.890625 39.300781 Z M 307.683594 109.203125 C 311.542969 105.34375 311.542969 99.089844 307.683594 95.230469 L 279.765625 67.304688 C 275.90625 63.445312 269.65625 63.445312 265.808594 67.304688 L 168.078125 165.050781 C 167.003906 166.140625 166.183594 167.460938 165.699219 168.914062 L 151.730469 210.8125 C 150.558594 214.355469 151.476562 218.265625 154.121094 220.910156 C 156.765625 223.558594 160.675781 224.488281 164.21875 223.300781 L 206.105469 209.339844 C 207.554688 208.855469 208.878906 208.035156 209.964844 206.949219 Z M 251.847656 109.203125 L 265.808594 123.164062 L 197.652344 191.339844 C 197.652344 191.339844 176.707031 198.320312 176.707031 198.320312 C 176.707031 198.320312 183.6875 177.375 183.6875 177.375 Z M 265.808594 95.230469 L 272.785156 88.25 L 286.746094 102.210938 L 279.765625 109.203125 Z M 265.808594 95.230469 " fill-opacity="1" fill-rule="evenodd"/></g></svg>